# Blender 5.1.1
# www.blender.org
mtllib arrow.mtl
o Cylinder.001
v 0.000000 -1.791055 -1.000000
v 0.000000 1.000000 -1.000000
v 0.195090 -1.791055 -0.980785
v 0.195090 1.000000 -0.980785
v 0.382683 -1.791055 -0.923880
v 0.382683 1.000000 -0.923880
v 0.555570 -1.791055 -0.831470
v 0.555570 1.000000 -0.831470
v 0.707107 -1.791055 -0.707107
v 0.707107 1.000000 -0.707107
v 0.831470 -1.791055 -0.555570
v 0.831470 1.000000 -0.555570
v 0.923880 -1.791055 -0.382683
v 0.923880 1.000000 -0.382683
v 0.980785 -1.791055 -0.195090
v 0.980785 1.000000 -0.195090
v 1.000000 -1.791055 0.000000
v 1.000000 1.000000 0.000000
v 0.980785 -1.791055 0.195090
v 0.980785 1.000000 0.195090
v 0.923880 -1.791055 0.382683
v 0.923880 1.000000 0.382683
v 0.831470 -1.791055 0.555570
v 0.831470 1.000000 0.555570
v 0.707107 -1.791055 0.707107
v 0.707107 1.000000 0.707107
v 0.555570 -1.791055 0.831470
v 0.555570 1.000000 0.831470
v 0.382683 -1.791055 0.923880
v 0.382683 1.000000 0.923880
v 0.195090 -1.791055 0.980785
v 0.195090 1.000000 0.980785
v 0.000000 -1.791055 1.000000
v 0.000000 1.000000 1.000000
v -0.195090 -1.791055 0.980785
v -0.195090 1.000000 0.980785
v -0.382683 -1.791055 0.923880
v -0.382683 1.000000 0.923880
v -0.555570 -1.791055 0.831470
v -0.555570 1.000000 0.831470
v -0.707107 -1.791055 0.707107
v -0.707107 1.000000 0.707107
v -0.831470 -1.791055 0.555570
v -0.831470 1.000000 0.555570
v -0.923880 -1.791055 0.382683
v -0.923880 1.000000 0.382683
v -0.980785 -1.791055 0.195090
v -0.980785 1.000000 0.195090
v -1.000000 -1.791055 0.000000
v -1.000000 1.000000 0.000000
v -0.980785 -1.791055 -0.195090
v -0.980785 1.000000 -0.195090
v -0.923880 -1.791055 -0.382683
v -0.923880 1.000000 -0.382683
v -0.831470 -1.791055 -0.555570
v -0.831470 1.000000 -0.555570
v -0.707107 -1.791055 -0.707107
v -0.707107 1.000000 -0.707107
v -0.555570 -1.791055 -0.831470
v -0.555570 1.000000 -0.831470
v -0.382683 -1.791055 -0.923880
v -0.382683 1.000000 -0.923880
v -0.195090 -1.791055 -0.980785
v -0.195090 1.000000 -0.980785
v 0.432842 0.964314 -2.176045
v -0.000000 0.964314 -2.218677
v 0.849051 0.964314 -2.049790
v 1.232631 0.964314 -1.844762
v 1.568841 0.964314 -1.568841
v 1.844762 0.964314 -1.232631
v 2.049790 0.964314 -0.849051
v 2.176045 0.964314 -0.432842
v 2.218677 0.964314 0.000000
v 2.176045 0.964314 0.432842
v 2.049790 0.964314 0.849051
v 1.844762 0.964314 1.232631
v 1.568841 0.964314 1.568841
v 1.232631 0.964314 1.844762
v 0.849051 0.964314 2.049790
v 0.432842 0.964314 2.176045
v -0.000000 0.964314 2.218677
v -0.432842 0.964314 2.176045
v -0.849051 0.964314 2.049790
v -1.232631 0.964314 1.844762
v -1.568841 0.964314 1.568841
v -1.844762 0.964314 1.232631
v -2.049790 0.964314 0.849051
v -2.176045 0.964314 0.432842
v -2.218677 0.964314 0.000000
v -2.176045 0.964314 -0.432842
v -2.049790 0.964314 -0.849051
v -1.844762 0.964314 -1.232631
v -1.568841 0.964314 -1.568841
v -1.232631 0.964314 -1.844762
v -0.849051 0.964314 -2.049790
v -0.432842 0.964314 -2.176045
v 0.000000 4.775591 -0.000000
v 0.000000 -1.791055 -1.000000
v 0.000000 1.000000 -1.000000
v 0.195090 -1.791055 -0.980785
v 0.195090 1.000000 -0.980785
v 0.382683 -1.791055 -0.923880
v 0.382683 1.000000 -0.923880
v 0.555570 -1.791055 -0.831470
v 0.555570 1.000000 -0.831470
v 0.707107 -1.791055 -0.707107
v 0.707107 1.000000 -0.707107
v 0.831470 -1.791055 -0.555570
v 0.831470 1.000000 -0.555570
v 0.923880 -1.791055 -0.382683
v 0.923880 1.000000 -0.382683
v 0.980785 -1.791055 -0.195090
v 0.980785 1.000000 -0.195090
v 1.000000 -1.791055 0.000000
v 1.000000 1.000000 0.000000
v 0.980785 -1.791055 0.195090
v 0.980785 1.000000 0.195090
v 0.923880 -1.791055 0.382683
v 0.923880 1.000000 0.382683
v 0.831470 -1.791055 0.555570
v 0.831470 1.000000 0.555570
v 0.707107 -1.791055 0.707107
v 0.707107 1.000000 0.707107
v 0.555570 -1.791055 0.831470
v 0.555570 1.000000 0.831470
v 0.382683 -1.791055 0.923880
v 0.382683 1.000000 0.923880
v 0.195090 -1.791055 0.980785
v 0.195090 1.000000 0.980785
v 0.000000 -1.791055 1.000000
v 0.000000 1.000000 1.000000
v -0.195090 -1.791055 0.980785
v -0.195090 1.000000 0.980785
v -0.382683 -1.791055 0.923880
v -0.382683 1.000000 0.923880
v -0.555570 -1.791055 0.831470
v -0.555570 1.000000 0.831470
v -0.707107 -1.791055 0.707107
v -0.707107 1.000000 0.707107
v -0.831470 -1.791055 0.555570
v -0.831470 1.000000 0.555570
v -0.923880 -1.791055 0.382683
v -0.923880 1.000000 0.382683
v -0.980785 -1.791055 0.195090
v -0.980785 1.000000 0.195090
v -1.000000 -1.791055 0.000000
v -1.000000 1.000000 0.000000
v -0.980785 -1.791055 -0.195090
v -0.980785 1.000000 -0.195090
v -0.923880 -1.791055 -0.382683
v -0.923880 1.000000 -0.382683
v -0.831470 -1.791055 -0.555570
v -0.831470 1.000000 -0.555570
v -0.707107 -1.791055 -0.707107
v -0.707107 1.000000 -0.707107
v -0.555570 -1.791055 -0.831470
v -0.555570 1.000000 -0.831470
v -0.382683 -1.791055 -0.923880
v -0.382683 1.000000 -0.923880
v -0.195090 -1.791055 -0.980785
v -0.195090 1.000000 -0.980785
v 0.432842 0.964314 -2.176045
v -0.000000 0.964314 -2.218677
v 0.849051 0.964314 -2.049790
v 1.232631 0.964314 -1.844762
v 1.568841 0.964314 -1.568841
v 1.844762 0.964314 -1.232631
v 2.049790 0.964314 -0.849051
v 2.176045 0.964314 -0.432842
v 2.218677 0.964314 0.000000
v 2.176045 0.964314 0.432842
v 2.049790 0.964314 0.849051
v 1.844762 0.964314 1.232631
v 1.568841 0.964314 1.568841
v 1.232631 0.964314 1.844762
v 0.849051 0.964314 2.049790
v 0.432842 0.964314 2.176045
v -0.000000 0.964314 2.218677
v -0.432842 0.964314 2.176045
v -0.849051 0.964314 2.049790
v -1.232631 0.964314 1.844762
v -1.568841 0.964314 1.568841
v -1.844762 0.964314 1.232631
v -2.049790 0.964314 0.849051
v -2.176045 0.964314 0.432842
v -2.218677 0.964314 0.000000
v -2.176045 0.964314 -0.432842
v -2.049790 0.964314 -0.849051
v -1.844762 0.964314 -1.232631
v -1.568841 0.964314 -1.568841
v -1.232631 0.964314 -1.844762
v -0.849051 0.964314 -2.049790
v -0.432842 0.964314 -2.176045
v 0.000000 4.775591 -0.000000
vn -0.0980 -0.0000 0.9952
vn -0.2903 -0.0000 0.9569
vn -0.4714 -0.0000 0.8819
vn -0.6344 -0.0000 0.7730
vn -0.7730 -0.0000 0.6344
vn -0.8819 -0.0000 0.4714
vn -0.9569 -0.0000 0.2903
vn -0.9952 -0.0000 0.0980
vn -0.9952 -0.0000 -0.0980
vn -0.9569 -0.0000 -0.2903
vn -0.8819 -0.0000 -0.4714
vn -0.7730 -0.0000 -0.6344
vn -0.6344 -0.0000 -0.7730
vn -0.4714 -0.0000 -0.8819
vn -0.2903 -0.0000 -0.9569
vn -0.0980 -0.0000 -0.9952
vn 0.0980 -0.0000 -0.9952
vn 0.2903 -0.0000 -0.9569
vn 0.4714 -0.0000 -0.8819
vn 0.6344 -0.0000 -0.7730
vn 0.7730 -0.0000 -0.6344
vn 0.8819 -0.0000 -0.4714
vn 0.9569 -0.0000 -0.2903
vn 0.9952 -0.0000 -0.0980
vn 0.9952 -0.0000 0.0980
vn 0.9569 -0.0000 0.2903
vn 0.8819 -0.0000 0.4714
vn 0.7730 -0.0000 0.6344
vn 0.6344 -0.0000 0.7730
vn 0.4714 -0.0000 0.8819
vn 0.0293 0.9996 0.0029
vn 0.2903 -0.0000 0.9569
vn 0.0980 -0.0000 0.9952
vn -0.0000 1.0000 -0.0000
vn 0.8611 -0.5013 0.0848
vn -0.0085 0.9996 0.0281
vn -0.0259 0.9996 -0.0139
vn 0.0227 0.9996 -0.0187
vn 0.0139 0.9996 0.0259
vn -0.0281 0.9996 0.0085
vn 0.0029 0.9996 -0.0293
vn -0.0029 0.9996 -0.0293
vn 0.0281 0.9996 0.0085
vn -0.0139 0.9996 0.0259
vn -0.0227 0.9996 -0.0187
vn 0.0259 0.9996 -0.0139
vn 0.0085 0.9996 0.0281
vn -0.0293 0.9996 0.0029
vn 0.0085 0.9996 -0.0281
vn 0.0259 0.9996 0.0139
vn -0.0187 0.9996 0.0227
vn -0.0187 0.9996 -0.0227
vn 0.0281 0.9996 -0.0085
vn 0.0029 0.9996 0.0293
vn -0.0293 0.9996 -0.0029
vn 0.0139 0.9996 -0.0259
vn 0.0227 0.9996 0.0187
vn -0.0227 0.9996 0.0187
vn -0.0139 0.9996 -0.0259
vn 0.0293 0.9996 -0.0029
vn -0.0029 0.9996 0.0293
vn -0.0281 0.9996 -0.0085
vn 0.0187 0.9996 -0.0227
vn 0.0187 0.9996 0.0227
vn -0.0259 0.9996 0.0139
vn -0.0085 0.9996 -0.0281
vn -0.6689 -0.5013 -0.5489
vn 0.8280 -0.5013 0.2512
vn -0.5489 -0.5013 -0.6689
vn 0.7631 -0.5013 0.4079
vn -0.4079 -0.5013 -0.7631
vn -0.0848 -0.5013 0.8611
vn 0.6689 -0.5013 0.5489
vn -0.2512 -0.5013 -0.8280
vn -0.2512 -0.5013 0.8280
vn 0.5489 -0.5013 0.6689
vn -0.0848 -0.5013 -0.8611
vn -0.4079 -0.5013 0.7631
vn 0.4079 -0.5013 0.7631
vn 0.0848 -0.5013 -0.8611
vn -0.5489 -0.5013 0.6689
vn 0.2512 -0.5013 0.8280
vn 0.2512 -0.5013 -0.8280
vn -0.6689 -0.5013 0.5489
vn 0.0848 -0.5013 0.8611
vn 0.4079 -0.5013 -0.7631
vn -0.7631 -0.5013 0.4079
vn 0.5489 -0.5013 -0.6689
vn -0.8280 -0.5013 0.2512
vn 0.6689 -0.5013 -0.5489
vn -0.8611 -0.5013 0.0848
vn 0.7631 -0.5013 -0.4079
vn -0.8611 -0.5013 -0.0848
vn 0.8280 -0.5013 -0.2512
vn -0.8280 -0.5013 -0.2512
vn 0.8611 -0.5013 -0.0848
vn -0.7631 -0.5013 -0.4079
vn -0.0293 -0.9996 -0.0029
vn -0.0000 -1.0000 -0.0000
vn -0.8611 0.5013 -0.0848
vn 0.0085 -0.9996 -0.0281
vn 0.0259 -0.9996 0.0139
vn -0.0227 -0.9996 0.0187
vn -0.0139 -0.9996 -0.0259
vn 0.0281 -0.9996 -0.0085
vn -0.0029 -0.9996 0.0293
vn 0.0029 -0.9996 0.0293
vn -0.0281 -0.9996 -0.0085
vn 0.0139 -0.9996 -0.0259
vn 0.0227 -0.9996 0.0187
vn -0.0259 -0.9996 0.0139
vn -0.0085 -0.9996 -0.0281
vn 0.0293 -0.9996 -0.0029
vn -0.0085 -0.9996 0.0281
vn -0.0259 -0.9996 -0.0139
vn 0.0187 -0.9996 -0.0227
vn 0.0187 -0.9996 0.0227
vn -0.0281 -0.9996 0.0085
vn -0.0029 -0.9996 -0.0293
vn 0.0293 -0.9996 0.0029
vn -0.0139 -0.9996 0.0259
vn -0.0227 -0.9996 -0.0187
vn 0.0227 -0.9996 -0.0187
vn 0.0139 -0.9996 0.0259
vn -0.0293 -0.9996 0.0029
vn 0.0029 -0.9996 -0.0293
vn 0.0281 -0.9996 0.0085
vn -0.0187 -0.9996 0.0227
vn -0.0187 -0.9996 -0.0227
vn 0.0259 -0.9996 -0.0139
vn 0.0085 -0.9996 0.0281
vn 0.6689 0.5013 0.5489
vn -0.8280 0.5013 -0.2512
vn 0.5489 0.5013 0.6689
vn -0.7631 0.5013 -0.4079
vn 0.4079 0.5013 0.7631
vn 0.0848 0.5013 -0.8611
vn -0.6689 0.5013 -0.5489
vn 0.2512 0.5013 0.8280
vn 0.2512 0.5013 -0.8280
vn -0.5489 0.5013 -0.6689
vn 0.0848 0.5013 0.8611
vn 0.4079 0.5013 -0.7631
vn -0.4079 0.5013 -0.7631
vn -0.0848 0.5013 0.8611
vn 0.5489 0.5013 -0.6689
vn -0.2512 0.5013 -0.8280
vn -0.2512 0.5013 0.8280
vn 0.6689 0.5013 -0.5489
vn -0.0848 0.5013 -0.8611
vn -0.4079 0.5013 0.7631
vn 0.7631 0.5013 -0.4079
vn -0.5489 0.5013 0.6689
vn 0.8280 0.5013 -0.2512
vn -0.6689 0.5013 0.5489
vn 0.8611 0.5013 -0.0848
vn -0.7631 0.5013 0.4079
vn 0.8611 0.5013 0.0848
vn -0.8280 0.5013 0.2512
vn 0.8280 0.5013 0.2512
vn -0.8611 0.5013 0.0848
vn 0.7631 0.5013 0.4079
vt 1.000000 0.500000
vt 0.968750 0.500000
vt 0.968750 1.000000
vt 1.000000 1.000000
vt 0.937500 0.500000
vt 0.937500 1.000000
vt 0.906250 0.500000
vt 0.906250 1.000000
vt 0.875000 0.500000
vt 0.875000 1.000000
vt 0.843750 0.500000
vt 0.843750 1.000000
vt 0.812500 0.500000
vt 0.812500 1.000000
vt 0.781250 0.500000
vt 0.781250 1.000000
vt 0.750000 0.500000
vt 0.750000 1.000000
vt 0.718750 0.500000
vt 0.718750 1.000000
vt 0.687500 0.500000
vt 0.687500 1.000000
vt 0.656250 0.500000
vt 0.656250 1.000000
vt 0.625000 0.500000
vt 0.625000 1.000000
vt 0.593750 0.500000
vt 0.593750 1.000000
vt 0.562500 0.500000
vt 0.562500 1.000000
vt 0.531250 0.500000
vt 0.531250 1.000000
vt 0.500000 0.500000
vt 0.500000 1.000000
vt 0.468750 0.500000
vt 0.468750 1.000000
vt 0.437500 0.500000
vt 0.437500 1.000000
vt 0.406250 0.500000
vt 0.406250 1.000000
vt 0.375000 0.500000
vt 0.375000 1.000000
vt 0.343750 0.500000
vt 0.343750 1.000000
vt 0.312500 0.500000
vt 0.312500 1.000000
vt 0.281250 0.500000
vt 0.281250 1.000000
vt 0.250000 0.500000
vt 0.250000 1.000000
vt 0.218750 0.500000
vt 0.218750 1.000000
vt 0.187500 0.500000
vt 0.187500 1.000000
vt 0.156250 0.500000
vt 0.156250 1.000000
vt 0.125000 0.500000
vt 0.125000 1.000000
vt 0.093750 0.500000
vt 0.093750 1.000000
vt 0.062500 0.500000
vt 0.062500 1.000000
vt 0.031250 0.500000
vt 0.031250 1.000000
vt 0.000000 0.500000
vt 0.000000 1.000000
vt 0.750000 0.490000
vt 0.703178 0.485388
vt 0.658156 0.471731
vt 0.616663 0.449553
vt 0.580294 0.419706
vt 0.550447 0.383337
vt 0.528269 0.341844
vt 0.514612 0.296822
vt 0.510000 0.250000
vt 0.514612 0.203178
vt 0.528269 0.158156
vt 0.550447 0.116663
vt 0.580294 0.080294
vt 0.616663 0.050447
vt 0.658156 0.028269
vt 0.703178 0.014612
vt 0.750000 0.010000
vt 0.796822 0.014612
vt 0.841844 0.028269
vt 0.883337 0.050447
vt 0.919706 0.080294
vt 0.949553 0.116663
vt 0.971731 0.158156
vt 0.985388 0.203178
vt 0.990000 0.250000
vt 0.985388 0.296822
vt 0.971731 0.341844
vt 0.949553 0.383337
vt 0.919706 0.419706
vt 0.883337 0.449553
vt 0.841844 0.471731
vt 0.796822 0.485388
s 0
f 1/1/1 3/2/1 4/3/1 2/4/1
f 3/2/2 5/5/2 6/6/2 4/3/2
f 5/5/3 7/7/3 8/8/3 6/6/3
f 7/7/4 9/9/4 10/10/4 8/8/4
f 9/9/5 11/11/5 12/12/5 10/10/5
f 11/11/6 13/13/6 14/14/6 12/12/6
f 13/13/7 15/15/7 16/16/7 14/14/7
f 15/15/8 17/17/8 18/18/8 16/16/8
f 17/17/9 19/19/9 20/20/9 18/18/9
f 19/19/10 21/21/10 22/22/10 20/20/10
f 21/21/11 23/23/11 24/24/11 22/22/11
f 23/23/12 25/25/12 26/26/12 24/24/12
f 25/25/13 27/27/13 28/28/13 26/26/13
f 27/27/14 29/29/14 30/30/14 28/28/14
f 29/29/15 31/31/15 32/32/15 30/30/15
f 31/31/16 33/33/16 34/34/16 32/32/16
f 33/33/17 35/35/17 36/36/17 34/34/17
f 35/35/18 37/37/18 38/38/18 36/36/18
f 37/37/19 39/39/19 40/40/19 38/38/19
f 39/39/20 41/41/20 42/42/20 40/40/20
f 41/41/21 43/43/21 44/44/21 42/42/21
f 43/43/22 45/45/22 46/46/22 44/44/22
f 45/45/23 47/47/23 48/48/23 46/46/23
f 47/47/24 49/49/24 50/50/24 48/48/24
f 49/49/25 51/51/25 52/52/25 50/50/25
f 51/51/26 53/53/26 54/54/26 52/52/26
f 53/53/27 55/55/27 56/56/27 54/54/27
f 55/55/28 57/57/28 58/58/28 56/56/28
f 57/57/29 59/59/29 60/60/29 58/58/29
f 59/59/30 61/61/30 62/62/30 60/60/30
f 20/20/31 74/20/31 73/18/31 18/18/31
f 61/61/32 63/63/32 64/64/32 62/62/32
f 63/63/33 1/65/33 2/66/33 64/64/33
f 1/67/34 63/68/34 61/69/34 59/70/34 57/71/34 55/72/34 53/73/34 51/74/34 49/75/34 47/76/34 45/77/34 43/78/34 41/79/34 39/80/34 37/81/34 35/82/34 33/83/34 31/84/34 29/85/34 27/86/34 25/87/34 23/88/34 21/89/34 19/90/34 17/91/34 15/92/34 13/93/34 11/94/34 9/95/34 7/96/34 5/97/34 3/98/34
f 90/52/35 97/52/35 89/50/35
f 38/38/36 83/38/36 82/36/36 36/36/36
f 56/56/37 92/56/37 91/54/37 54/54/37
f 12/12/38 70/12/38 69/10/38 10/10/38
f 30/30/39 79/30/39 78/28/39 28/28/39
f 48/48/40 88/48/40 87/46/40 46/46/40
f 4/3/41 65/3/41 66/4/41 2/4/41
f 2/66/42 66/66/42 96/64/42 64/64/42
f 22/22/43 75/22/43 74/20/43 20/20/43
f 40/40/44 84/40/44 83/38/44 38/38/44
f 58/58/45 93/58/45 92/56/45 56/56/45
f 14/14/46 71/14/46 70/12/46 12/12/46
f 32/32/47 80/32/47 79/30/47 30/30/47
f 50/50/48 89/50/48 88/48/48 48/48/48
f 6/6/49 67/6/49 65/3/49 4/3/49
f 24/24/50 76/24/50 75/22/50 22/22/50
f 42/42/51 85/42/51 84/40/51 40/40/51
f 60/60/52 94/60/52 93/58/52 58/58/52
f 16/16/53 72/16/53 71/14/53 14/14/53
f 34/34/54 81/34/54 80/32/54 32/32/54
f 52/52/55 90/52/55 89/50/55 50/50/55
f 8/8/56 68/8/56 67/6/56 6/6/56
f 26/26/57 77/26/57 76/24/57 24/24/57
f 44/44/58 86/44/58 85/42/58 42/42/58
f 62/62/59 95/62/59 94/60/59 60/60/59
f 18/18/60 73/18/60 72/16/60 16/16/60
f 36/36/61 82/36/61 81/34/61 34/34/61
f 54/54/62 91/54/62 90/52/62 52/52/62
f 10/10/63 69/10/63 68/8/63 8/8/63
f 28/28/64 78/28/64 77/26/64 26/26/64
f 46/46/65 87/46/65 86/44/65 44/44/65
f 64/64/66 96/64/66 95/62/66 62/62/66
f 77/26/67 97/26/67 76/24/67
f 91/54/68 97/54/68 90/52/68
f 78/28/69 97/28/69 77/26/69
f 92/56/70 97/56/70 91/54/70
f 79/30/71 97/30/71 78/28/71
f 65/3/72 97/3/72 66/4/72
f 93/58/73 97/58/73 92/56/73
f 80/32/74 97/32/74 79/30/74
f 67/6/75 97/6/75 65/3/75
f 94/60/76 97/60/76 93/58/76
f 81/34/77 97/34/77 80/32/77
f 68/8/78 97/8/78 67/6/78
f 95/62/79 97/62/79 94/60/79
f 82/36/80 97/36/80 81/34/80
f 69/10/81 97/10/81 68/8/81
f 96/64/82 97/64/82 95/62/82
f 83/38/83 97/38/83 82/36/83
f 70/12/84 97/12/84 69/10/84
f 66/66/85 97/66/85 96/64/85
f 84/40/86 97/40/86 83/38/86
f 71/14/87 97/14/87 70/12/87
f 85/42/88 97/42/88 84/40/88
f 72/16/89 97/16/89 71/14/89
f 86/44/90 97/44/90 85/42/90
f 73/18/91 97/18/91 72/16/91
f 87/46/92 97/46/92 86/44/92
f 74/20/93 97/20/93 73/18/93
f 88/48/94 97/48/94 87/46/94
f 75/22/95 97/22/95 74/20/95
f 89/50/96 97/50/96 88/48/96
f 76/24/97 97/24/97 75/22/97
f 98/1/17 99/4/17 101/3/17 100/2/17
f 100/2/18 101/3/18 103/6/18 102/5/18
f 102/5/19 103/6/19 105/8/19 104/7/19
f 104/7/20 105/8/20 107/10/20 106/9/20
f 106/9/21 107/10/21 109/12/21 108/11/21
f 108/11/22 109/12/22 111/14/22 110/13/22
f 110/13/23 111/14/23 113/16/23 112/15/23
f 112/15/24 113/16/24 115/18/24 114/17/24
f 114/17/25 115/18/25 117/20/25 116/19/25
f 116/19/26 117/20/26 119/22/26 118/21/26
f 118/21/27 119/22/27 121/24/27 120/23/27
f 120/23/28 121/24/28 123/26/28 122/25/28
f 122/25/29 123/26/29 125/28/29 124/27/29
f 124/27/30 125/28/30 127/30/30 126/29/30
f 126/29/32 127/30/32 129/32/32 128/31/32
f 128/31/33 129/32/33 131/34/33 130/33/33
f 130/33/1 131/34/1 133/36/1 132/35/1
f 132/35/2 133/36/2 135/38/2 134/37/2
f 134/37/3 135/38/3 137/40/3 136/39/3
f 136/39/4 137/40/4 139/42/4 138/41/4
f 138/41/5 139/42/5 141/44/5 140/43/5
f 140/43/6 141/44/6 143/46/6 142/45/6
f 142/45/7 143/46/7 145/48/7 144/47/7
f 144/47/8 145/48/8 147/50/8 146/49/8
f 146/49/9 147/50/9 149/52/9 148/51/9
f 148/51/10 149/52/10 151/54/10 150/53/10
f 150/53/11 151/54/11 153/56/11 152/55/11
f 152/55/12 153/56/12 155/58/12 154/57/12
f 154/57/13 155/58/13 157/60/13 156/59/13
f 156/59/14 157/60/14 159/62/14 158/61/14
f 117/20/98 115/18/98 170/18/98 171/20/98
f 158/61/15 159/62/15 161/64/15 160/63/15
f 160/63/16 161/64/16 99/66/16 98/65/16
f 98/67/99 100/98/99 102/97/99 104/96/99 106/95/99 108/94/99 110/93/99 112/92/99 114/91/99 116/90/99 118/89/99 120/88/99 122/87/99 124/86/99 126/85/99 128/84/99 130/83/99 132/82/99 134/81/99 136/80/99 138/79/99 140/78/99 142/77/99 144/76/99 146/75/99 148/74/99 150/73/99 152/72/99 154/71/99 156/70/99 158/69/99 160/68/99
f 187/52/100 186/50/100 194/52/100
f 135/38/101 133/36/101 179/36/101 180/38/101
f 153/56/102 151/54/102 188/54/102 189/56/102
f 109/12/103 107/10/103 166/10/103 167/12/103
f 127/30/104 125/28/104 175/28/104 176/30/104
f 145/48/105 143/46/105 184/46/105 185/48/105
f 101/3/106 99/4/106 163/4/106 162/3/106
f 99/66/107 161/64/107 193/64/107 163/66/107
f 119/22/108 117/20/108 171/20/108 172/22/108
f 137/40/109 135/38/109 180/38/109 181/40/109
f 155/58/110 153/56/110 189/56/110 190/58/110
f 111/14/111 109/12/111 167/12/111 168/14/111
f 129/32/112 127/30/112 176/30/112 177/32/112
f 147/50/113 145/48/113 185/48/113 186/50/113
f 103/6/114 101/3/114 162/3/114 164/6/114
f 121/24/115 119/22/115 172/22/115 173/24/115
f 139/42/116 137/40/116 181/40/116 182/42/116
f 157/60/117 155/58/117 190/58/117 191/60/117
f 113/16/118 111/14/118 168/14/118 169/16/118
f 131/34/119 129/32/119 177/32/119 178/34/119
f 149/52/120 147/50/120 186/50/120 187/52/120
f 105/8/121 103/6/121 164/6/121 165/8/121
f 123/26/122 121/24/122 173/24/122 174/26/122
f 141/44/123 139/42/123 182/42/123 183/44/123
f 159/62/124 157/60/124 191/60/124 192/62/124
f 115/18/125 113/16/125 169/16/125 170/18/125
f 133/36/126 131/34/126 178/34/126 179/36/126
f 151/54/127 149/52/127 187/52/127 188/54/127
f 107/10/128 105/8/128 165/8/128 166/10/128
f 125/28/129 123/26/129 174/26/129 175/28/129
f 143/46/130 141/44/130 183/44/130 184/46/130
f 161/64/131 159/62/131 192/62/131 193/64/131
f 174/26/132 173/24/132 194/26/132
f 188/54/133 187/52/133 194/54/133
f 175/28/134 174/26/134 194/28/134
f 189/56/135 188/54/135 194/56/135
f 176/30/136 175/28/136 194/30/136
f 162/3/137 163/4/137 194/3/137
f 190/58/138 189/56/138 194/58/138
f 177/32/139 176/30/139 194/32/139
f 164/6/140 162/3/140 194/6/140
f 191/60/141 190/58/141 194/60/141
f 178/34/142 177/32/142 194/34/142
f 165/8/143 164/6/143 194/8/143
f 192/62/144 191/60/144 194/62/144
f 179/36/145 178/34/145 194/36/145
f 166/10/146 165/8/146 194/10/146
f 193/64/147 192/62/147 194/64/147
f 180/38/148 179/36/148 194/38/148
f 167/12/149 166/10/149 194/12/149
f 163/66/150 193/64/150 194/66/150
f 181/40/151 180/38/151 194/40/151
f 168/14/152 167/12/152 194/14/152
f 182/42/153 181/40/153 194/42/153
f 169/16/154 168/14/154 194/16/154
f 183/44/155 182/42/155 194/44/155
f 170/18/156 169/16/156 194/18/156
f 184/46/157 183/44/157 194/46/157
f 171/20/158 170/18/158 194/20/158
f 185/48/159 184/46/159 194/48/159
f 172/22/160 171/20/160 194/22/160
f 186/50/161 185/48/161 194/50/161
f 173/24/162 172/22/162 194/24/162
